<svg width="64" height="64" viewBox="0 0 64 64" fill="none" xmlns="http://www.w3.org/2000/svg">
<path fill-rule="evenodd" clip-rule="evenodd" d="M32.0001 7.33337C30.4088 7.33337 28.8827 7.96552 27.7575 9.09073C26.6322 10.216 26.0001 11.7421 26.0001 13.3334V14.0267C27.4854 14 29.1148 14 30.9068 14H33.0961C34.8828 14 36.5148 14 38.0028 14.0267V13.3334C38.0028 12.5452 37.8475 11.7648 37.5458 11.0367C37.2441 10.3085 36.8019 9.64698 36.2445 9.08979C35.687 8.5326 35.0253 8.0907 34.297 7.78933C33.5688 7.48796 32.7883 7.33302 32.0001 7.33337ZM42.0001 14.208V13.3334C42.0001 10.6812 40.9465 8.13767 39.0712 6.26231C37.1958 4.38694 34.6523 3.33337 32.0001 3.33337C29.3479 3.33337 26.8044 4.38694 24.929 6.26231C23.0537 8.13767 22.0001 10.6812 22.0001 13.3334V14.208C21.6197 14.24 21.2517 14.2783 20.8961 14.3227C18.2028 14.656 15.9841 15.3547 14.0961 16.92C12.2081 18.4854 11.1148 20.5387 10.2934 23.1254C9.49344 25.632 8.89077 28.8507 8.13344 32.9014L8.07744 33.1947C7.00544 38.9094 6.16277 43.4134 6.00544 46.9627C5.84544 50.6027 6.38944 53.616 8.44277 56.088C10.4961 58.5627 13.3574 59.6507 16.9628 60.1654C20.4828 60.6667 25.0614 60.6667 30.8774 60.6667H33.1308C38.9441 60.6667 43.5254 60.6667 47.0428 60.1654C50.6481 59.6507 53.5121 58.5627 55.5654 56.088C57.6188 53.6134 58.1574 50.6027 58.0001 46.9627C57.8454 43.4134 57.0001 38.9094 55.9281 33.1947L55.8748 32.9014C55.1148 28.8507 54.5094 25.6294 53.7148 23.1254C52.8881 20.5387 51.7948 18.4854 49.9068 16.92C48.0214 15.3547 45.8001 14.6534 43.1068 14.3227C42.7395 14.2775 42.3715 14.2393 42.0028 14.208M21.3868 18.2934C19.1068 18.5734 17.7281 19.104 16.6508 20C15.5761 20.8907 14.8001 22.1467 14.1014 24.3387C13.3894 26.5787 12.8268 29.56 12.0374 33.7707C10.9281 39.6827 10.1414 43.904 10.0001 47.1387C9.86144 50.312 10.3734 52.152 11.5174 53.536C12.6641 54.9147 14.3788 55.7547 17.5254 56.2027C20.7254 56.6614 25.0241 56.6667 31.0401 56.6667H32.9601C38.9788 56.6667 43.2721 56.6614 46.4748 56.2054C49.6214 55.7547 51.3361 54.9147 52.4828 53.536C53.6294 52.1547 54.1388 50.3147 54.0028 47.136C53.8588 43.9067 53.0721 39.6827 51.9628 33.7707C51.1734 29.5574 50.6134 26.5814 49.8988 24.3387C49.2001 22.1467 48.4268 20.8907 47.3494 19.9974C46.2721 19.104 44.8961 18.5734 42.6134 18.2907C40.2774 18.0027 37.2454 18 32.9601 18H31.0401C26.7548 18 23.7228 18.0027 21.3868 18.2934ZM38.6614 31.84C39.0575 32.1921 39.2976 32.687 39.3291 33.216C39.3606 33.7449 39.1809 34.2648 38.8294 34.6614L31.7174 42.6614C31.5424 42.8585 31.3302 43.0191 31.0929 43.1339C30.8556 43.2487 30.5979 43.3154 30.3347 43.3303C30.0715 43.3451 29.808 43.3078 29.5593 43.2205C29.3106 43.1332 29.0816 42.9975 28.8854 42.8214L25.3281 39.6214C24.9335 39.2663 24.696 38.7691 24.668 38.239C24.64 37.7089 24.8237 37.1894 25.1788 36.7947C25.5338 36.4001 26.0311 36.1626 26.5612 36.1346C27.0913 36.1066 27.6108 36.2903 28.0054 36.6454L30.0641 38.5014L35.8401 32.0054C36.1922 31.6093 36.687 31.3692 37.216 31.3377C37.745 31.3062 38.2649 31.4886 38.6614 31.84Z" fill="#22C55E"/>
</svg>
