<svg width="22" height="16" viewBox="0 0 22 16" fill="none" xmlns="http://www.w3.org/2000/svg">
<path d="M7.87504 10.9166L18.0834 0.708292C18.4653 0.326347 18.9514 0.135376 19.5417 0.135376C20.132 0.135376 20.6181 0.326347 21 0.708292C21.382 1.09024 21.573 1.57635 21.573 2.16663C21.573 2.7569 21.382 3.24301 21 3.62496L9.33337 15.2916C8.91671 15.7083 8.4306 15.9166 7.87504 15.9166C7.31949 15.9166 6.83337 15.7083 6.41671 15.2916L1.00004 9.87496C0.618095 9.49301 0.427124 9.0069 0.427124 8.41663C0.427124 7.82635 0.618095 7.34024 1.00004 6.95829C1.38198 6.57635 1.8681 6.38538 2.45837 6.38538C3.04865 6.38538 3.53476 6.57635 3.91671 6.95829L7.87504 10.9166Z" fill="#22C55E"/>
</svg>
